<?xml version="1.0" encoding="utf-8"?>
<!-- Generator: Adobe Illustrator 16.0.0, SVG Export Plug-In . SVG Version: 6.00 Build 0)  -->
<!DOCTYPE svg PUBLIC "-//W3C//DTD SVG 1.1//EN" "http://www.w3.org/Graphics/SVG/1.1/DTD/svg11.dtd">
<svg version="1.1" id="Layer_1" xmlns="http://www.w3.org/2000/svg" xmlns:xlink="http://www.w3.org/1999/xlink" x="0px" y="0px"
	 width="258.377px" height="481.333px" viewBox="0 0 258.377 481.333" enable-background="new 0 0 258.377 481.333"
	 xml:space="preserve">
<ellipse fill="#CCCCCC" cx="137.877" cy="460.833" rx="120.5" ry="20.5"/>
<path fill="#2B2B2B" d="M213.945,447.833c24.616-60.816,1.217-73.658-13.576-71.942c-1.49-122.31-45.035-172.696-51.398-182.524
	c-6.175-9.537-0.597-32.972-0.066-35.124c1.334-0.296,2.733-0.66,4.186-1.125c1.998-0.565,4.065-1.406,6.179-2.487
	c2.576-1.269,5.188-2.875,7.719-4.9c10.971-8.26,22.415-22.211,31.48-39.604c15.604-29.939,18.819-59.809,8.523-71.094
	C215.823,20.422,208.044,0,208.044,0s-24.113,4.641-33.623,21.691c-10.82-2.856-23.353-4.492-36.719-4.492
	c-13.861,0-26.823,1.76-37.911,4.815C90.408,4.701,65.992,0,65.992,0s-8.073,21.188,1.561,40.067
	c-9.228,11.995-5.754,40.995,9.394,70.059c7.921,15.198,17.659,27.763,27.309,36.207h-0.015c3.789,3.796,7.984,6.483,12.081,8.391
	c2.683,1.357,5.291,2.316,7.776,2.83c0.816,0.222,1.607,0.412,2.378,0.582l-0.623-0.068c0,0,6.475,25.299,0,35.299
	c-6.364,9.829-49.94,60.215-51.433,182.522c-14.788-1.704-38.149,11.15-13.542,71.944c0,0-27.163-2.748-15.5,14c4,5.744,92,4,92,4
	s88.033,1.744,92.033-4C241.073,445.085,213.945,447.833,213.945,447.833z"/>
<path fill="#262626" d="M213.945,447.833c24.616-60.816,1.217-73.658-13.576-71.942c-1.49-122.31-45.035-172.696-51.398-182.524
	c-6.175-9.537-0.597-32.972-0.066-35.124c1.334-0.296,2.733-0.66,4.186-1.125c1.998-0.565,4.065-1.406,6.179-2.487
	c2.576-1.269,5.188-2.875,7.719-4.9c10.971-8.26,22.415-22.211,31.48-39.604c15.604-29.939,18.819-59.809,8.523-71.094
	C215.823,20.422,208.044,0,208.044,0s-24.113,4.641-33.623,21.691c-10.82-2.856-23.353-4.492-36.719-4.492
	c-0.109,0-0.216,0.005-0.325,0.005v448.628c0,0,88.033,1.744,92.033-4C241.073,445.085,213.945,447.833,213.945,447.833z"/>
<path fill="#D45C9E" d="M182.887,22.228c4.907-9.733,18.544-12.352,18.544-12.352s4.425,11.605-0.926,21.876
	C199.56,33.566,182.887,22.228,182.887,22.228z"/>
<path fill="#D45C9E" d="M89.149,22.228C84.242,12.494,70.605,9.875,70.605,9.875S66.18,21.48,71.531,31.752
	C72.476,33.566,89.149,22.228,89.149,22.228z"/>
<g>
	<g>
		<path fill="#2B2B2B" d="M79.044,361.999c-17.515-0.375-31.818-19.186-41.015-32.035c-12.077-16.877-22.536-35.956-25.299-56.774
			c-2.822-21.262,1.375-43.525,13.501-61.321c2.78-4.08,8.364-12.472,13.479-13.059c2.202-0.252,3.75,3.07,4.464,5.339
			c1.483,4.719,0.178,10.83-3.374,14.273c-5.564,5.395,2.93,13.872,8.485,8.485c8.394-8.138,9.561-22.172,3.77-32.067
			c-4.778-8.165-13.697-9.876-21.641-5.352c-7.608,4.332-13.182,12.52-17.79,19.721c-6.209,9.705-9.853,20.809-11.934,32.093
			c-4.859,26.357,1.051,52.101,13.794,75.31c10.356,18.863,23.806,38.089,41.933,50.186c6.408,4.276,13.889,7.036,21.624,7.201
			C86.787,374.165,86.771,362.164,79.044,361.999L79.044,361.999z"/>
	</g>
</g>
<g>
	<g>
		<g>
			<g>
				<path fill="#262626" d="M178.793,96.779c19.263-6.637,38.986-9.664,59.203-6c1.891,0.343,2.699-2.548,0.797-2.893
					c-20.771-3.764-40.984-0.827-60.797,6C176.178,94.513,176.959,97.412,178.793,96.779L178.793,96.779z"/>
			</g>
		</g>
		<g>
			<g>
				<path fill="#262626" d="M180.793,106.779c19.25-7.608,43.769-6.273,63.203,0c1.846,0.596,2.63-2.301,0.797-2.893
					c-19.917-6.43-45.071-7.796-64.797,0C178.219,104.589,178.993,107.491,180.793,106.779L180.793,106.779z"/>
			</g>
		</g>
	</g>
	<g>
		<g>
			<g>
				<path fill="#2B2B2B" d="M96.794,93.887c-19.813-6.827-40.026-9.764-60.798-6c-1.901,0.344-1.093,3.235,0.798,2.893
					c20.216-3.664,39.94-0.637,59.202,6C97.831,97.412,98.612,94.513,96.794,93.887L96.794,93.887z"/>
			</g>
		</g>
		<g>
			<g>
				<path fill="#2B2B2B" d="M94.794,103.887c-19.726-7.796-44.88-6.43-64.798,0c-1.833,0.592-1.049,3.489,0.798,2.893
					c19.434-6.273,43.953-7.608,63.202,0C95.798,107.491,96.572,104.589,94.794,103.887L94.794,103.887z"/>
			</g>
		</g>
	</g>
</g>
</svg>
