<?xml version="1.0" encoding="utf-8"?>
<!-- Generator: Adobe Illustrator 16.0.0, SVG Export Plug-In . SVG Version: 6.00 Build 0)  -->
<!DOCTYPE svg PUBLIC "-//W3C//DTD SVG 1.1//EN" "http://www.w3.org/Graphics/SVG/1.1/DTD/svg11.dtd">
<svg version="1.1" id="Layer_1" xmlns="http://www.w3.org/2000/svg" xmlns:xlink="http://www.w3.org/1999/xlink" x="0px" y="0px"
	 width="246.354px" height="246px" viewBox="0 0 246.354 246" enable-background="new 0 0 246.354 246" xml:space="preserve">
<circle fill="#F7F7F7" cx="123.5" cy="123.5" r="78.5"/>
<path fill="#26A65B" d="M169.574,77.679c0,0.063,0,0.127,0,0.19c-0.051,0.295-0.102,0.589-0.148,0.885
	c-0.371,2.338-0.705,4.683-1.121,7.013c-0.703,3.945-1.57,7.857-2.549,11.744c-1.881,7.477-4.189,14.816-7.047,21.98
	c-3.057,7.668-6.693,15.044-11.184,21.982c-3.141,4.852-6.658,9.406-10.682,13.562c-3.799,3.925-7.966,7.4-12.587,10.322
	c-5.252,3.319-10.879,5.778-16.893,7.345c-2.663,0.693-5.362,1.195-8.093,1.53c-0.415,0.052-0.838,0.106-1.252,0.082
	c-0.655-0.037-1.309-0.126-1.958-0.219c-1.971-0.281-3.882-0.778-5.687-1.638c-1.842-0.877-3.42-2.082-4.628-3.744
	c-0.127-0.175-0.197-0.348-0.18-0.569c0.07-0.916,0.107-1.835,0.194-2.75c0.164-1.733,0.322-3.47,0.541-5.197
	c0.306-2.412,0.728-4.807,1.271-7.178c0.791-3.451,1.802-6.832,3.237-10.075c1.329-3.004,2.969-5.823,5.153-8.289
	c1.92-2.166,3.938-4.241,6.076-6.195c4.098-3.747,8.641-6.831,13.696-9.132c3.961-1.803,8.048-3.302,12.127-4.813
	c2.482-0.92,4.96-1.847,7.355-2.979c3.409-1.611,6.65-3.529,9.861-5.496c2.753-1.686,5.433-3.481,8.048-5.373
	c0.082-0.06,0.158-0.124,0.236-0.187c-0.012-0.017-0.025-0.033-0.039-0.049c-0.09,0.046-0.182,0.092-0.271,0.14
	c-4.264,2.284-8.642,4.326-13.104,6.2c-3.874,1.627-7.849,2.926-11.933,3.906c-3.63,0.871-7.216,1.886-10.705,3.234
	c-3.966,1.531-7.798,3.328-11.412,5.574c-7.304,4.538-13.329,10.369-17.862,17.703c-1.06,1.714-2.07,3.46-2.854,5.316
	c-1.999,4.734-3.339,9.666-4.297,14.707c-0.07,0.369-0.141,0.738-0.216,1.136c-0.103-0.05-0.168-0.075-0.227-0.111
	c-2.453-1.47-4.193-3.523-5.108-6.25c-0.525-1.562-0.675-3.187-0.796-4.814c-0.045-0.599-0.073-1.198-0.109-1.798
	c0-0.618,0-1.236,0-1.855c0.019-0.219,0.042-0.438,0.055-0.657c0.019-0.316,0.029-0.633,0.044-0.949
	c0.088-1.894,0.308-3.771,0.619-5.641c0.535-3.214,1.367-6.348,2.531-9.391c3.354-8.771,8.919-15.791,16.736-21.001
	c4.374-2.916,9.086-5.17,14.018-6.972c5.239-1.915,10.636-3.225,16.124-4.18c3.645-0.634,7.312-1.101,10.986-1.524
	c2.108-0.243,4.221-0.451,6.326-0.72c2.276-0.291,4.553-0.598,6.818-0.963c2.814-0.453,5.523-1.275,8.1-2.512
	C162.121,86.447,166.471,82.766,169.574,77.679z"/>
<path fill="none" d="M50.967,122.964c0.103,39.48,31.803,71.518,71.033,72.145V50.535C82.656,51.184,50.864,83.448,50.967,122.964z"
	/>
<path fill="#777777" d="M50.967,122.964C50.864,83.448,82.656,51.184,122,50.535V24.491c-1.553-0.115-3.148-0.008-4.696,0.206
	c-2.714,0.375-4.439-0.76-5.923-2.976c-4-5.978-8.165-11.844-12.268-17.752c-1.693-2.438-2.497-2.704-5.348-1.744
	c-6.509,2.193-13.017,4.389-19.52,6.599c-2.542,0.864-3.066,1.582-2.874,4.247c0.531,7.367,1.081,14.732,1.702,22.093
	c0.175,2.073-0.436,3.613-2.185,4.766c-1.984,1.307-3.93,2.673-5.862,4.057c-1.608,1.152-3.235,1.305-5.075,0.529
	c-6.922-2.915-13.868-5.771-20.809-8.64c-2.681-1.108-3.537-0.9-5.326,1.314c-4.238,5.247-8.47,10.498-12.692,15.757
	c-1.524,1.897-1.522,3.007-0.027,4.98c4.382,5.786,8.73,11.598,13.181,17.33c1.429,1.841,1.68,3.622,0.738,5.719
	c-1.104,2.459-2.167,4.941-3.109,7.465c-0.806,2.161-2.269,3.261-4.513,3.648c-7.275,1.259-14.534,2.604-21.8,3.91
	c-2.607,0.468-3.351,1.114-3.674,3.667c-0.686,5.413-1.104,10.839-1.75,16.258C0.102,116.489,0,117.042,0,117.601
	c0,1.671,0,3.343,0,5.014c5,1.978,10.932,3.95,16.481,5.937c2.357,0.845,4.601,1.76,6.97,2.567c1.901,0.647,2.903,1.907,3.243,3.875
	c0.569,3.289,1.141,6.575,1.805,9.846c0.435,2.146-0.074,3.835-1.735,5.354c-5.452,4.986-10.83,10.06-16.226,15.106
	c-2.012,1.882-2.176,2.822-0.939,5.231c2.875,5.599,5.744,11.197,8.633,16.787c1.156,2.236,2.09,2.679,4.503,2.143
	c7.208-1.601,14.423-3.171,21.61-4.859c2.047-0.481,3.63-0.062,5.044,1.439c2.556,2.712,5.134,5.403,7.738,8.068
	c1.389,1.422,1.759,2.979,1.246,4.927c-1.878,7.14-3.666,14.304-5.477,21.461c-0.683,2.698-0.333,3.555,2.037,4.898
	c5.419,3.071,10.845,6.132,16.275,9.184c2.241,1.259,3.26,1.109,5.105-0.757c5.059-5.117,10.154-10.2,15.13-15.396
	c1.744-1.821,3.543-2.489,6.023-1.825c3.222,0.863,6.498,1.542,9.774,2.178c2.264,0.439,3.574,1.65,4.281,3.863
	c2.149,6.727,4.362,13.231,6.71,19.891c0.476,1.35,1.649,2.469,2.501,3.469c0.421,0,0.843,0,1.265,0v-50.892
	C82.77,194.481,51.069,162.444,50.967,122.964z"/>
<path fill="#26A65B" d="M108.429,98.91c-4.932,1.802-9.644,4.056-14.018,6.972c-7.817,5.21-13.382,12.229-16.736,21.001
	c-1.164,3.043-1.996,6.177-2.531,9.391c-0.311,1.869-0.53,3.747-0.619,5.641c-0.015,0.316-0.239,0.633-0.258,0.949
	c-0.013,0.22-0.268,0.438-0.268,0.657c0,0.619,0,1.237,0,1.855c0,0.6,0.277,1.199,0.322,1.798c0.122,1.628,0.378,3.253,0.903,4.814
	c0.916,2.727,2.709,4.78,5.162,6.25c0.059,0.036,0.15,0.062,0.253,0.111c0.076-0.397,0.16-0.767,0.23-1.136
	c0.958-5.041,2.305-9.973,4.304-14.707c0.784-1.856,1.798-3.603,2.858-5.316c4.533-7.334,10.56-13.165,17.864-17.703
	c3.614-2.246,7.447-4.043,11.413-5.574c1.545-0.597,3.113-1.121,4.691-1.604V95.221C117.392,96.125,112.853,97.293,108.429,98.91z"
	/>
<path fill="#26A65B" d="M115.733,119.329c-5.055,2.301-9.598,5.385-13.696,9.132c-2.139,1.954-4.156,4.029-6.076,6.195
	c-2.185,2.466-3.824,5.285-5.153,8.289c-1.436,3.243-2.446,6.624-3.237,10.075c-0.543,2.371-0.965,4.766-1.271,7.178
	c-0.218,1.728-0.376,3.464-0.541,5.197c-0.086,0.915-0.124,1.834-0.194,2.75c-0.017,0.222,0.053,0.395,0.18,0.569
	c1.208,1.662,2.787,2.867,4.628,3.744c1.805,0.859,3.716,1.356,5.687,1.638c0.65,0.093,1.303,0.182,1.958,0.219
	c0.415,0.024,0.837-0.03,1.252-0.082c2.731-0.335,5.431-0.837,8.093-1.53c5.162-1.345,10.037-3.352,14.636-5.99v-49.994
	C119.89,117.537,117.794,118.391,115.733,119.329z"/>
<path opacity="0.1" d="M136.844,155.036c4.023-4.156,7.541-8.711,10.682-13.562c4.49-6.938,8.127-14.314,11.184-21.982
	c2.857-7.164,5.166-14.504,7.047-21.98c0.979-3.887,1.846-7.799,2.549-11.744c0.416-2.33,0.963-4.675,1.334-7.013
	c0.047-0.296,0.361-0.59,0.361-0.885c0-0.063,0-0.127,0-0.19c-4,5.087-7.666,8.769-13.004,11.333
	c-2.576,1.236-5.392,2.059-8.206,2.512c-2.266,0.365-4.595,0.672-6.872,0.963c-2.105,0.269-4.244,0.477-6.353,0.72
	c-3.674,0.424-7.354,0.891-10.999,1.524c-0.855,0.149-1.716,0.323-2.566,0.49v17.089c1.986-0.607,3.992-1.146,6.015-1.631
	c4.084-0.98,8.059-2.279,11.933-3.906c4.462-1.874,8.84-3.916,13.104-6.2c0.09-0.048,0.182-0.094,0.271-0.14
	c0.014,0.016,0.027,0.032,0.039,0.049c-0.078,0.062-0.154,0.127-0.236,0.187c-2.615,1.892-5.295,3.688-8.048,5.373
	c-3.211,1.967-6.452,3.885-9.861,5.496c-2.396,1.132-4.873,2.059-7.355,2.979c-1.957,0.725-3.915,1.449-5.86,2.203v49.994
	c0.759-0.436,1.513-0.885,2.257-1.354C128.878,162.437,133.045,158.961,136.844,155.036z"/>
<path fill="#777777" d="M139.145,245.029c5.648-0.562,5.662-0.439,6.828-5.953c1.368-6.473,2.755-12.891,4.05-19.377
	c0.432-2.16,1.48-3.548,3.602-4.289c3.091-1.079,6.143-2.263,9.185-3.475c1.868-0.745,3.447-0.445,5.004,0.826
	c5.675,4.631,11.392,9.217,17.101,13.807c2.17,1.743,3.055,1.751,5.276,0.068c5.172-3.92,10.341-7.844,15.503-11.777
	c2.178-1.659,2.434-2.544,1.455-5.13c-2.639-6.965-5.256-13.938-7.966-20.876c-0.809-2.073-0.612-3.826,0.765-5.57
	c1.513-1.915,3.021-3.852,4.318-5.913c1.474-2.338,3.424-2.953,6.071-2.628c7.014,0.861,14.047,1.564,21.074,2.308
	c2.632,0.278,3.443-0.251,4.344-2.714c2.314-6.333,4.625-12.667,6.934-19.003c0.987-2.711,0.739-3.577-1.538-5.261
	c-5.839-4.316-11.642-8.683-17.546-12.907c-2.167-1.55-3.193-3.34-2.792-6.034c0.292-1.964,0.321-3.97,0.405-5.959
	c0.084-2.015,1.071-3.307,2.861-4.19c6.506-3.216,12.983-6.49,19.469-9.747c2.885-1.448,3.19-2.151,2.491-5.347
	c-1.44-6.588-2.865-13.179-4.284-19.771c-0.632-2.935-1.222-3.549-4.204-3.757c-7.18-0.501-14.359-1.028-21.548-1.348
	c-2.773-0.123-4.619-1.151-5.733-3.685c-0.593-1.348-1.349-2.63-2.103-3.898c-1.099-1.846-1.032-3.584,0.078-5.432
	c3.773-6.276,7.484-12.589,11.209-18.894c1.534-2.597,1.429-3.472-0.642-5.587c-4.899-5.006-9.802-10.01-14.706-15.012
	c-2.026-2.065-2.915-2.196-5.405-0.814c-6.403,3.552-12.832,7.06-19.194,10.686c-2.08,1.186-3.973,1.282-5.935-0.08
	c-0.158-0.109-0.338-0.186-0.506-0.281c-6.813-3.923-6.044-2.646-6.402-10.741c-0.272-6.163-0.432-12.331-0.689-18.494
	c-0.105-2.523-0.757-3.248-3.2-3.835c-6.433-1.544-12.871-2.865-19.301-4.42C142.815,0.365,142.196,0,141.56,0
	c-0.771,0-1.543,0-2.313,0c-0.831,1-1.812,1.925-2.47,3.124c-3.393,6.194-6.747,12.308-10.016,18.569
	c-1.026,1.967-2.289,3.044-4.65,2.854c-0.037-0.003-0.074-0.053-0.11-0.056v26.043c0.405-0.007,0.806-0.031,1.213-0.031
	c39.83,0.006,72.176,32.372,72.237,72.284c0.062,39.843-32.292,72.282-72.158,72.351c-0.433,0.001-0.86-0.023-1.292-0.03V246
	c2.149,0,4.299,0,6.448,0C132.014,246,135.576,245.385,139.145,245.029z"/>
<path opacity="0.1" d="M139.145,245.029c5.648-0.562,5.662-0.439,6.828-5.953c1.368-6.473,2.755-12.891,4.05-19.377
	c0.432-2.16,1.48-3.548,3.602-4.289c3.091-1.079,6.143-2.263,9.185-3.475c1.868-0.745,3.447-0.445,5.004,0.826
	c5.675,4.631,11.392,9.217,17.101,13.807c2.17,1.743,3.055,1.751,5.276,0.068c5.172-3.92,10.341-7.844,15.503-11.777
	c2.178-1.659,2.434-2.544,1.455-5.13c-2.639-6.965-5.256-13.938-7.966-20.876c-0.809-2.073-0.612-3.826,0.765-5.57
	c1.513-1.915,3.021-3.852,4.318-5.913c1.474-2.338,3.424-2.953,6.071-2.628c7.014,0.861,14.047,1.564,21.074,2.308
	c2.632,0.278,3.443-0.251,4.344-2.714c2.314-6.333,4.625-12.667,6.934-19.003c0.987-2.711,0.739-3.577-1.538-5.261
	c-5.839-4.316-11.642-8.683-17.546-12.907c-2.167-1.55-3.193-3.34-2.792-6.034c0.292-1.964,0.321-3.97,0.405-5.959
	c0.084-2.015,1.071-3.307,2.861-4.19c6.506-3.216,12.983-6.49,19.469-9.747c2.885-1.448,3.19-2.151,2.491-5.347
	c-1.44-6.588-2.865-13.179-4.284-19.771c-0.632-2.935-1.222-3.549-4.204-3.757c-7.18-0.501-14.359-1.028-21.548-1.348
	c-2.773-0.123-4.619-1.151-5.733-3.685c-0.593-1.348-1.349-2.63-2.103-3.898c-1.099-1.846-1.032-3.584,0.078-5.432
	c3.773-6.276,7.484-12.589,11.209-18.894c1.534-2.597,1.429-3.472-0.642-5.587c-4.899-5.006-9.802-10.01-14.706-15.012
	c-2.026-2.065-2.915-2.196-5.405-0.814c-6.403,3.552-12.832,7.06-19.194,10.686c-2.08,1.186-3.973,1.282-5.935-0.08
	c-0.158-0.109-0.338-0.186-0.506-0.281c-6.813-3.923-6.044-2.646-6.402-10.741c-0.272-6.163-0.432-12.331-0.689-18.494
	c-0.105-2.523-0.757-3.248-3.2-3.835c-6.433-1.544-12.871-2.865-19.301-4.42C142.815,0.365,142.196,0,141.56,0
	c-0.771,0-1.543,0-2.313,0c-0.831,1-1.812,1.925-2.47,3.124c-3.393,6.194-6.747,12.308-10.016,18.569
	c-1.026,1.967-2.289,3.044-4.65,2.854c-0.036-0.003-0.073-0.053-0.11-0.056v26.043c0.405-0.007,0.807-0.031,1.213-0.031
	c39.83,0.006,72.176,32.372,72.237,72.284c0.062,39.843-32.292,72.282-72.158,72.351c-0.433,0.001-0.86-0.023-1.292-0.03V246
	c2.149,0,4.299,0,6.448,0C132.014,246,135.576,245.385,139.145,245.029z"/>
</svg>
