<?xml version="1.0" encoding="utf-8"?>
<!-- Generator: Adobe Illustrator 16.0.0, SVG Export Plug-In . SVG Version: 6.00 Build 0)  -->
<!DOCTYPE svg PUBLIC "-//W3C//DTD SVG 1.1//EN" "http://www.w3.org/Graphics/SVG/1.1/DTD/svg11.dtd">
<svg version="1.1" id="Layer_1" xmlns="http://www.w3.org/2000/svg" xmlns:xlink="http://www.w3.org/1999/xlink" x="0px" y="0px"
	 viewBox="0 0 300 300" enable-background="new 0 0 300 300" xml:space="preserve">
<circle fill-rule="evenodd" clip-rule="evenodd" fill="#FFFFFF" cx="149.5" cy="149.234" r="148.592"/>
<circle fill-rule="evenodd" clip-rule="evenodd" fill="none" cx="149.5" cy="149.234" r="148.592"/>
<g>
	<defs>
		<circle id="SVGID_1_" cx="149.5" cy="149.234" r="148.592"/>
	</defs>
	<clipPath id="SVGID_2_">
		<use xlink:href="#SVGID_1_"  overflow="visible"/>
	</clipPath>
	<g clip-path="url(#SVGID_2_)">
		<path fill-rule="evenodd" clip-rule="evenodd" fill="#3A4049" d="M170,244.589c0,8.397-6.466,15.411-14.653,15.411h-9.896
			c-8.189,0-13.451-7.014-13.451-15.411v-63.062c0-8.396,5.262-16.527,13.451-16.527h9.896c8.188,0,14.653,8.131,14.653,16.527
			V244.589z"/>
		<path fill-rule="evenodd" clip-rule="evenodd" fill="#B3B3B3" d="M222,164.226c0,8.478-8.713,14.774-17.396,14.774H91.474
			C82.785,179,76,172.703,76,164.226V79.239C76,70.762,82.785,64,91.474,64h113.13C213.287,64,222,70.762,222,79.239V164.226z"/>
		<path fill-rule="evenodd" clip-rule="evenodd" fill="#B3B3B3" d="M256,363.051c0,8.476-6.36,15.949-14.834,15.949H62.186
			C53.711,379,47,371.526,47,363.051V259.987C47,251.511,53.711,243,62.186,243h178.98c8.474,0,14.834,8.511,14.834,16.987V363.051z
			"/>
		<rect x="147" y="28" fill-rule="evenodd" clip-rule="evenodd" fill="#475160" width="5" height="36"/>
		<path fill-rule="evenodd" clip-rule="evenodd" fill="#D24D57" d="M164.35,29.138c0-7.708-6.246-13.953-13.95-13.953
			c-7.706,0-13.952,6.246-13.952,13.953c0,7.703,6.247,13.948,13.952,13.948C158.104,43.086,164.35,36.841,164.35,29.138z"/>
		<rect x="132" y="210" fill-rule="evenodd" clip-rule="evenodd" fill="#475160" width="38" height="4"/>
		<rect x="132" y="199" fill-rule="evenodd" clip-rule="evenodd" fill="#475160" width="38" height="3"/>
		<rect x="132" y="185" fill-rule="evenodd" clip-rule="evenodd" fill="#475160" width="38" height="6"/>
		<rect x="132" y="223" fill-rule="evenodd" clip-rule="evenodd" fill="#475160" width="38" height="3"/>
		<rect x="132" y="233" fill-rule="evenodd" clip-rule="evenodd" fill="#475160" width="38" height="5"/>
		<path opacity="0.4" fill-rule="evenodd" clip-rule="evenodd" fill="#F7F7F7" d="M150,15.185c-9,0-13.949,6.246-13.949,13.953
			c0,7.703,4.949,13.948,13.949,13.948V15.185z"/>
		<path fill-rule="evenodd" clip-rule="evenodd" fill="#D24D57" d="M150.375,105.859c0,16.815-13.63,30.45-30.451,30.45
			c-16.818,0-30.45-13.634-30.45-30.45c0-16.818,13.631-30.451,30.45-30.451C136.745,75.408,150.375,89.042,150.375,105.859z"/>
		<path fill-rule="evenodd" clip-rule="evenodd" fill="#D24D57" d="M211.288,105.859c0,16.815-13.635,30.45-30.45,30.45
			c-16.821,0-30.455-13.634-30.455-30.45c0-16.818,13.634-30.451,30.455-30.451C197.653,75.408,211.288,89.042,211.288,105.859z"/>
		<path fill-rule="evenodd" clip-rule="evenodd" fill="#212121" stroke="#20466F" stroke-width="0.25" stroke-miterlimit="10" d="
			M143.403,105.859c0,13.22-10.718,23.943-23.943,23.943c-13.226,0-23.943-10.723-23.943-23.943
			c0-13.223,10.717-23.944,23.943-23.944C132.685,81.916,143.403,92.636,143.403,105.859z"/>
		<path fill-rule="evenodd" clip-rule="evenodd" fill="#212121" d="M205.245,105.859c0,13.22-10.726,23.943-23.948,23.943
			c-13.219,0-23.938-10.723-23.938-23.943c0-13.223,10.72-23.944,23.938-23.944C194.52,81.916,205.245,92.636,205.245,105.859z"/>
		<rect x="207" y="97" fill-rule="evenodd" clip-rule="evenodd" fill="#D24D57" width="15" height="23"/>
		<rect x="76" y="97" fill-rule="evenodd" clip-rule="evenodd" fill="#D24D57" width="17" height="23"/>
		<rect x="145" y="97" fill-rule="evenodd" clip-rule="evenodd" fill="#D24D57" width="11" height="23"/>
		<path fill-rule="evenodd" clip-rule="evenodd" fill="#ECF0F1" d="M199.974,100.278c0,1.924-1.563,3.484-3.493,3.484
			c-1.921,0-3.483-1.561-3.483-3.484c0-1.928,1.562-3.487,3.483-3.487C198.41,96.791,199.974,98.351,199.974,100.278z"/>
		<path fill-rule="evenodd" clip-rule="evenodd" fill="#ECF0F1" d="M196.406,110.742c0,1.155-0.933,2.091-2.087,2.091
			c-1.159,0-2.097-0.937-2.097-2.091c0-1.16,0.938-2.093,2.097-2.093C195.474,108.649,196.406,109.582,196.406,110.742z"/>
		<path fill-rule="evenodd" clip-rule="evenodd" fill="#ECF0F1" d="M138.595,101.674c0,1.927-1.562,3.487-3.49,3.487
			c-1.92,0-3.485-1.561-3.485-3.487c0-1.928,1.565-3.489,3.485-3.489C137.033,98.185,138.595,99.746,138.595,101.674z"/>
		<path fill-rule="evenodd" clip-rule="evenodd" fill="#ECF0F1" d="M135.032,112.133c0,1.158-0.938,2.093-2.093,2.093
			c-1.151,0-2.091-0.936-2.091-2.093c0-1.155,0.939-2.09,2.091-2.09C134.095,110.043,135.032,110.978,135.032,112.133z"/>
		<path opacity="0.1" fill-rule="evenodd" clip-rule="evenodd" fill="#333333" d="M206.173,64H150v115h56.173
			c8.476,0,15.827-7.474,15.827-15.95V79.355C222,70.879,214.648,64,206.173,64z"/>
		<path opacity="0.1" fill-rule="evenodd" clip-rule="evenodd" fill="#333333" d="M242.781,243H150v131h92.781
			c8.771,0,13.219-2.999,13.219-11.477V259.299C256,250.824,251.553,243,242.781,243z"/>
	</g>
</g>
</svg>
